<?xml version="1.0" encoding="UTF-8" standalone="no"?>
<!-- Generator: Adobe Illustrator 17.0.0, SVG Export Plug-In . SVG Version: 6.00 Build 0)  -->

<svg
   xmlns:ns="&amp;#38;ns_sfw;"
   xmlns:dc="http://purl.org/dc/elements/1.1/"
   xmlns:cc="http://creativecommons.org/ns#"
   xmlns:rdf="http://www.w3.org/1999/02/22-rdf-syntax-ns#"
   xmlns:svg="http://www.w3.org/2000/svg"
   xmlns="http://www.w3.org/2000/svg"
   xmlns:sodipodi="http://sodipodi.sourceforge.net/DTD/sodipodi-0.dtd"
   xmlns:inkscape="http://www.inkscape.org/namespaces/inkscape"
   version="1.1"
   id="Layer_1"
   x="0px"
   y="0px"
   width="353.746px"
   height="353.777px"
   viewBox="0 0 353.746 353.777"
   enable-background="new 0 0 353.746 353.777"
   xml:space="preserve"
   inkscape:version="0.48.4 r9939"
   sodipodi:docname="rayIcon.svg"><defs
   id="defs3697" /><sodipodi:namedview
   pagecolor="#ffffff"
   bordercolor="#666666"
   borderopacity="1"
   objecttolerance="10"
   gridtolerance="10"
   guidetolerance="10"
   inkscape:pageopacity="0"
   inkscape:pageshadow="2"
   inkscape:window-width="1010"
   inkscape:window-height="810"
   id="namedview3695"
   showgrid="false"
   inkscape:zoom="0.66708688"
   inkscape:cx="37.89078"
   inkscape:cy="176.8885"
   inkscape:window-x="79"
   inkscape:window-y="38"
   inkscape:window-maximized="0"
   inkscape:current-layer="layer5"
   inkscape:snap-to-guides="true" />
<metadata
   id="metadata3495">
	<ns:sfw>
		<ns:slices />
		<ns:sliceSourceBounds
   height="355.67"
   y="438.33"
   x="-63.62"
   width="491.91"
   bottomLeftOrigin="true" />
	</ns:sfw>
<rdf:RDF><cc:Work
     rdf:about=""><dc:format>image/svg+xml</dc:format><dc:type
       rdf:resource="http://purl.org/dc/dcmitype/StillImage" /></cc:Work></rdf:RDF></metadata>

<g
   inkscape:groupmode="layer"
   id="layer4"
   inkscape:label="flower"
   style="display:inline"
   sodipodi:insensitive="true"><path
     sodipodi:type="arc"
     style="fill:#1091ff;fill-opacity:1"
     id="path3066-0-4"
     sodipodi:cx="344.03314"
     sodipodi:cy="-36.726849"
     sodipodi:rx="18.73819"
     sodipodi:ry="18.73819"
     d="m 362.77133,-36.726849 a 18.73819,18.73819 0 1 1 -37.47638,0 18.73819,18.73819 0 1 1 37.47638,0 z"
     transform="matrix(0.68000001,0,0,0.68000001,-219.72798,313.51213)" /><path
     sodipodi:type="arc"
     style="fill:#55d400"
     id="path3066-0-4-8-8"
     sodipodi:cx="344.03314"
     sodipodi:cy="-36.726849"
     sodipodi:rx="18.73819"
     sodipodi:ry="18.73819"
     d="m 362.77133,-36.726849 a 18.73819,18.73819 0 1 1 -37.47638,0 18.73819,18.73819 0 1 1 37.47638,0 z"
     transform="translate(-8.707947,58.210787)" /><path
     sodipodi:type="arc"
     style="fill:#ff6600;fill-opacity:1"
     id="path3066-0-4-2"
     sodipodi:cx="344.03314"
     sodipodi:cy="-36.726849"
     sodipodi:rx="18.73819"
     sodipodi:ry="18.73819"
     d="m 362.77133,-36.726849 a 18.73819,18.73819 0 1 1 -37.47638,0 18.73819,18.73819 0 1 1 37.47638,0 z"
     transform="matrix(1.12,0,0,1.12,-361.60349,371.16721)" /></g><g
   inkscape:groupmode="layer"
   id="layer1"
   inkscape:label="bg"
   style="display:inline"
   sodipodi:insensitive="true"><rect
     style="fill:#d40000;fill-rule:evenodd;stroke:none"
     id="rect3704"
     width="300"
     height="300"
     x="30"
     y="23.777004"
     rx="85.714287"
     ry="85.714287" /></g><g
   inkscape:groupmode="layer"
   id="layer2"
   inkscape:label="saumya"
   sodipodi:insensitive="true"
   style="display:inline"><g
     style="font-size:111.79882813px;font-style:normal;font-weight:normal;line-height:125%;letter-spacing:0px;word-spacing:0px;fill:#ffd5d5;fill-opacity:1;stroke:none;font-family:Sans"
     id="text5909"
     transform="translate(0,-1.4990551)"><path
       d="m 52.380805,222.28735 0,-80.02787 35.483025,0 c 7.13295,8e-5 12.55548,0.71884 16.2676,2.15628 3.71201,1.43759 6.67802,3.97599 8.89806,7.6152 2.21989,3.63935 3.32987,7.66076 3.32994,12.06423 -7e-5,5.67734 -1.83791,10.46299 -5.51352,14.35698 -3.67574,3.89407 -9.35302,6.36878 -17.03185,7.42414 2.8022,1.34657 4.93118,2.67491 6.38695,3.98502 3.09333,2.83867 6.02295,6.38697 8.78887,10.6449 l 13.92026,21.78112 -13.31978,0 -10.59032,-16.64972 c -3.09344,-4.80384 -5.64094,-8.47951 -7.6425,-11.02704 -2.00165,-2.54747 -3.79399,-4.33071 -5.37704,-5.34975 -1.58313,-1.01896 -3.19351,-1.72862 -4.831149,-2.12898 -1.201,-0.25471 -3.166212,-0.38209 -5.895641,-0.38212 l -12.282587,0 0,35.53761 z m 10.590318,-44.70861 22.763727,0 c 4.8402,4e-5 8.62505,-0.50036 11.35457,-1.5012 2.72941,-1.00076 4.8038,-2.60204 6.22318,-4.80386 1.41926,-2.20171 2.12891,-4.59454 2.12898,-7.17849 -7e-5,-3.78479 -1.37389,-6.89638 -4.12149,-9.33477 -2.74772,-2.43825 -7.08756,-3.65741 -13.01954,-3.65748 l -25.329427,0 z"
       id="path5916"
       inkscape:connector-curvature="0"
       style="fill:#ffffff" /><path
       d="m 124.22028,222.28735 30.73376,-80.02787 11.40916,0 32.75356,80.02787 -12.06423,0 -9.33477,-24.23763 -33.46322,0 -8.78887,24.23763 z m 23.09126,-32.86274 27.13087,0 -8.35216,-22.16324 c -2.54754,-6.73262 -4.43996,-12.26432 -5.67728,-16.59514 -1.01904,5.13146 -2.45656,10.22645 -4.31256,15.285 z"
       id="path5918"
       inkscape:connector-curvature="0"
       style="fill:#ffffff" /><path
       d="m 198.8988,231.91627 2.72592,-7.48937 49.16527,-27.18523 c -4.00752,-1.2262 -7.51596,-2.38698 -10.52535,-3.48236 l -22.21166,-8.08439 2.72592,-7.48937 44.52591,16.2061 -2.22181,6.10436 -42.07985,23.83866 -7.99047,4.2371 c 4.24997,1.19832 8.18746,2.45717 11.81248,3.77656 l 25.1869,9.16728 -2.89395,7.95106 z"
       id="path5920"
       inkscape:connector-curvature="0"
       style="fill:#800000" /><path
       d="m 272.13207,222.28735 0,-33.89993 -30.84294,-46.12794 12.88307,0 15.77629,24.12846 c 2.9114,4.51276 5.62267,9.02547 8.13381,13.53814 2.40188,-4.18513 5.31331,-8.898 8.73428,-14.13862 l 15.50335,-23.52798 12.33718,0 -31.93473,46.12794 0,33.89993 z"
       id="path5922"
       inkscape:connector-curvature="0"
       style="fill:#ffffff" /><path
       d="m 45.862701,194.31535 8.99558,-3.74382 c 2.4159,6.29537 2.68239,12.16127 0.79947,17.59775 -1.883,5.43651 -5.56648,9.73784 -11.05042,12.90401 -6.87076,3.96682 -13.690614,4.91017 -20.459621,2.82998 -6.769006,-2.08015 -12.573636,-7.31202 -17.413888,-15.69559 -3.1297725,-5.42091 -4.9700955,-10.68283 -5.5209695,-15.78577 -0.55084599,-5.10286 0.422757,-9.73068 2.920817,-13.88348 2.4980885,-4.15267 5.9060475,-7.47549 10.2238835,-9.96848 5.452465,-3.1479 10.708229,-4.34381 15.767311,-3.58774 5.059047,0.7562 9.541907,3.38936 13.448587,7.89946 l -7.53629,6.053 c -2.734962,-2.91735 -5.594404,-4.64928 -8.578336,-5.1958 -2.983955,-0.5464 -5.894193,-7.8e-4 -8.730729,1.63684 -4.286327,2.47477 -6.881891,6.02193 -7.786704,10.64149 -0.904796,4.61966 0.562522,10.25452 4.40196,16.90459 3.894033,6.7447 8.015773,10.89955 12.365239,12.46459 4.349447,1.56508 8.6043,1.14663 12.76457,-1.25532 3.3408,-1.92879 5.53868,-4.56348 6.59365,-7.90407 1.05493,-3.34051 0.65356,-7.31106 -1.20411,-11.91164 z"
       id="path5914"
       inkscape:connector-curvature="0"
       style="font-size:111.79882813px;font-style:normal;font-weight:normal;line-height:125%;letter-spacing:0px;word-spacing:0px;fill:#550000;fill-opacity:1;stroke:none;font-family:Sans" /></g></g><g
   inkscape:groupmode="layer"
   id="layer5"
   inkscape:label="flower#1"
   style="display:inline"><path
     sodipodi:type="arc"
     style="fill:#ffff00;fill-opacity:1"
     id="path3066-0-4-2-4"
     sodipodi:cx="344.03314"
     sodipodi:cy="-36.726849"
     sodipodi:rx="18.73819"
     sodipodi:ry="18.73819"
     d="m 362.77133,-36.726849 a 18.73819,18.73819 0 1 1 -37.47638,0 18.73819,18.73819 0 1 1 37.47638,0 z"
     transform="matrix(0.88000002,0,0,0.88000002,-58.403178,84.786554)" /><path
     sodipodi:type="arc"
     style="fill:#cc00ff;fill-opacity:1"
     id="path3066-0-4-2-4-5"
     sodipodi:cx="344.03314"
     sodipodi:cy="-36.726849"
     sodipodi:rx="18.73819"
     sodipodi:ry="18.73819"
     d="m 362.77133,-36.726849 a 18.73819,18.73819 0 1 1 -37.47638,0 18.73819,18.73819 0 1 1 37.47638,0 z"
     transform="matrix(1.52,0,0,1.52,-209.37549,137.01859)" /><path
     sodipodi:type="arc"
     style="fill:#d4ff2a;fill-opacity:1;display:inline"
     id="path3066-0-4-2-4-51"
     sodipodi:cx="344.03314"
     sodipodi:cy="-36.726849"
     sodipodi:rx="18.73819"
     sodipodi:ry="18.73819"
     d="m 362.77133,-36.726849 a 18.73819,18.73819 0 1 1 -37.47638,0 18.73819,18.73819 0 1 1 37.47638,0 z"
     transform="matrix(0.88000002,0,0,0.88000002,-221.8002,347.1212)" /><path
     sodipodi:type="arc"
     style="fill:#4400aa;fill-opacity:1;display:inline"
     id="path3066-0-4-7"
     sodipodi:cx="344.03314"
     sodipodi:cy="-36.726849"
     sodipodi:rx="18.73819"
     sodipodi:ry="18.73819"
     d="m 362.77133,-36.726849 a 18.73819,18.73819 0 1 1 -37.47638,0 18.73819,18.73819 0 1 1 37.47638,0 z"
     transform="matrix(0.96,0,0,0.96,-115.15741,56.99407)" /></g></svg>